<?xml version="1.0" encoding="utf-8"?>
<!-- Generator: Adobe Illustrator 17.0.0, SVG Export Plug-In . SVG Version: 6.00 Build 0)  -->
<!DOCTYPE svg PUBLIC "-//W3C//DTD SVG 1.1//EN" "http://www.w3.org/Graphics/SVG/1.1/DTD/svg11.dtd">
<svg version="1.1" id="Layer_1" xmlns="http://www.w3.org/2000/svg" xmlns:xlink="http://www.w3.org/1999/xlink" x="0px" y="0px"
	 width="815.768px" height="269.903px" viewBox="0 0 815.768 269.903" enable-background="new 0 0 815.768 269.903"
	 xml:space="preserve">
<path fill-rule="evenodd" clip-rule="evenodd" fill="#8F53A0" d="M797.73,237.383c-13.437,18.458-82.617,32.52-165.994,32.52
	c-64.769,0-120.964-8.489-149.134-20.929c-3.515-1.36-6.79-3.117-9.765-5.202c-2.679-1.771-4.827-3.598-6.392-5.476
	c-6.644-6.946-10.665-15.956-10.665-25.81c0-18.001,13.391-33.198,31.752-38.091c-0.004-0.276-0.036-0.545-0.036-0.822
	c0-31.651,28.675-57.31,64.048-57.31c16.648,0,31.809,5.686,43.198,15.002c15.802-23.591,44.666-39.39,77.668-39.39
	c41.818,0,76.991,25.365,87.356,59.815c0.295-0.004,0.587-0.02,0.883-0.02c30.441,0,55.118,22.056,55.118,49.263
	C815.768,215.38,808.812,228.372,797.73,237.383z M484.518,174.605c-18.766,5.194-32.453,21.328-32.453,40.438
	c0,8.716,2.86,16.804,7.739,23.527C414.565,252.777,341.793,262,259.685,262c-95.434,0-178.285-12.453-219.908-30.718
	c-5.382-2.058-10.384-4.746-14.91-7.948c-3.707-2.476-6.703-5.028-8.933-7.645C6.013,205.439,0,192.099,0,177.5
	C0,145.191,29.38,119,65.622,119c0.188,0,0.373,0.011,0.561,0.013c0-0.004,0-0.008,0-0.013c0-65.722,59.765-119,133.488-119
	c44.827,0,84.491,19.699,108.699,49.915C320.121,41.226,335.209,36,351.669,36c36.484,0,66.233,25.667,67.791,57.849
	C429.294,90.086,440.125,88,451.505,88c28.134,0,52.93,12.736,67.532,32.093c-20.566,10.258-34.556,30.428-34.556,53.64
	C484.481,174.026,484.514,174.313,484.518,174.605z"/>
</svg>
