<?xml version="1.0" encoding="utf-8"?>
<!-- Generator: Adobe Illustrator 17.0.0, SVG Export Plug-In . SVG Version: 6.00 Build 0)  -->
<!DOCTYPE svg PUBLIC "-//W3C//DTD SVG 1.1//EN" "http://www.w3.org/Graphics/SVG/1.1/DTD/svg11.dtd">
<svg version="1.1" id="Layer_1" xmlns="http://www.w3.org/2000/svg" xmlns:xlink="http://www.w3.org/1999/xlink" x="0px" y="0px"
	 width="12px" height="12px" viewBox="0 0 12 12" enable-background="new 0 0 12 12" xml:space="preserve">
<path fill-rule="evenodd" clip-rule="evenodd" fill="#FFFFFF" d="M10,8C8.896,8,8,6,8,6s0.895-2,2-2c1.105,0,2,0.895,2,2
	C12,7.105,11.105,8,10,8z M8,10c0,1.104-0.896,2-2,2c-1.105,0-2-0.896-2-2c0-1.105,2-2,2-2S8,8.895,8,10z M4,6l2-2l2,2L6,8L4,6z
	 M2,8C0.896,8,0,7.105,0,6c0-1.104,0.896-2,2-2c1.105,0,2,2,2,2S3.105,8,2,8z M4,2c0-1.105,0.895-2,2-2c1.105,0,2,0.895,2,2
	c0,1.104-2,2-2,2S4,3.104,4,2z"/>
</svg>
