<?xml version="1.0" encoding="utf-8"?>
<!-- Generator: Adobe Illustrator 17.0.0, SVG Export Plug-In . SVG Version: 6.00 Build 0)  -->
<!DOCTYPE svg PUBLIC "-//W3C//DTD SVG 1.1//EN" "http://www.w3.org/Graphics/SVG/1.1/DTD/svg11.dtd">
<svg version="1.1" id="Layer_1" xmlns="http://www.w3.org/2000/svg" xmlns:xlink="http://www.w3.org/1999/xlink" x="0px" y="0px"
	 width="317.045px" height="279.913px" viewBox="0 0 317.045 279.913" enable-background="new 0 0 317.045 279.913"
	 xml:space="preserve">
<g>
	<g>
		<path fill="#EC6F64" d="M314.341,252.923C308.206,242.17,184.356,27.296,173.763,8.957c-6.959-12.044-23.551-11.841-30.518,0
			C135.476,22.159,10.995,237.853,2.347,253.473c-6.343,11.438,0.664,26.44,15.093,26.44h281.721
			C312.259,279.913,322.004,266.337,314.341,252.923z M287.481,272.16H29.237c-13.227,0-19.649-13.77-13.835-24.267
			c7.927-14.336,122.036-212.302,129.157-224.418c6.386-10.869,21.595-11.054,27.975,0c9.71,16.832,123.239,214.045,128.863,223.913
			C308.421,259.7,299.487,272.16,287.481,272.16z M158.819,211.534c-3.428,0-6.388,1.224-8.885,3.667
			c-2.497,2.446-3.745,5.38-3.745,8.802c0,3.425,1.248,6.382,3.745,8.875c2.497,2.494,5.457,3.741,8.885,3.741
			c3.525,0,6.51-1.247,8.959-3.741c2.446-2.494,3.672-5.451,3.672-8.875c0-3.422-1.225-6.356-3.672-8.802
			C165.33,212.758,162.344,211.534,158.819,211.534z M159.113,75.835c-3.623,0-6.707,1.445-9.252,4.328
			c-2.547,2.886-3.818,6.725-3.818,11.516c0,1.957,0.243,4.94,0.734,8.948l9.987,91.982h4.406l10.133-91.982
			c0.294-3.227,0.441-5.769,0.441-7.628c0-5.671-1.226-9.951-3.672-12.837C165.623,77.279,162.638,75.835,159.113,75.835z"/>
	</g>
</g>
</svg>
