<?xml version="1.0" encoding="utf-8"?>
<!-- Generator: Adobe Illustrator 17.0.0, SVG Export Plug-In . SVG Version: 6.00 Build 0)  -->
<!DOCTYPE svg PUBLIC "-//W3C//DTD SVG 1.1//EN" "http://www.w3.org/Graphics/SVG/1.1/DTD/svg11.dtd">
<svg version="1.1" id="Layer_1" xmlns="http://www.w3.org/2000/svg" xmlns:xlink="http://www.w3.org/1999/xlink" x="0px" y="0px"
	 width="331px" height="140px" viewBox="0 0 331 140" enable-background="new 0 0 331 140" xml:space="preserve">
<path fill-rule="evenodd" clip-rule="evenodd" fill="#5EA4D9" d="M310,44.925V62h-1.5H307V44.925C295.276,44.15,286,34.42,286,22.5
	C286,10.074,296.074,0,308.5,0C320.926,0,331,10.074,331,22.5C331,34.42,321.724,44.15,310,44.925z M308.5,2
	C297.178,2,288,11.179,288,22.5S297.178,43,308.5,43c11.322,0,20.5-9.179,20.5-20.5S319.822,2,308.5,2z M308.5,41
	c-10.217,0-18.5-8.283-18.5-18.5C290,12.283,298.283,4,308.5,4c10.217,0,18.5,8.283,18.5,18.5C327,32.718,318.717,41,308.5,41z
	 M309.114,13.579h-2.075v7.625h-8.4v-7.625h-2.075v17.5h2.075v-8.025h8.4v8.025h2.075V13.579z M321.652,20.879
	c-0.092-0.45-0.275-0.863-0.55-1.237c-0.275-0.376-0.675-0.679-1.2-0.913c-0.525-0.233-1.221-0.35-2.087-0.35
	c-0.917,0-1.796,0.092-2.638,0.275c-0.842,0.183-1.579,0.467-2.212,0.85l0.625,1.525c0.233-0.137,0.504-0.261,0.813-0.373
	c0.308-0.111,0.633-0.206,0.975-0.283c0.341-0.078,0.675-0.137,1-0.18c0.325-0.043,0.629-0.065,0.912-0.065
	c0.966,0,1.633,0.184,2,0.55c0.366,0.367,0.55,1.009,0.55,1.925c0,0.4-0.025,0.85-0.075,1.35c-0.234-0.033-0.463-0.05-0.688-0.05
	c-0.225,0-0.454,0-0.688,0c-0.917,0-1.754,0.062-2.513,0.187c-0.759,0.125-1.409,0.334-1.95,0.625
	c-0.542,0.292-0.963,0.684-1.262,1.175c-0.3,0.492-0.45,1.104-0.45,1.837c0,0.55,0.096,1.042,0.288,1.475
	c0.191,0.433,0.454,0.804,0.787,1.113c0.333,0.308,0.729,0.546,1.188,0.712c0.458,0.167,0.954,0.25,1.487,0.25
	c0.533,0,1.008-0.058,1.425-0.175c0.416-0.116,0.783-0.262,1.1-0.437c0.316-0.175,0.588-0.375,0.813-0.6
	c0.225-0.226,0.412-0.454,0.563-0.688h0.125l0.525,1.75h1.475c-0.133-0.466-0.225-0.975-0.275-1.525
	c-0.05-0.55-0.075-1.133-0.075-1.75c0-0.85,0.025-1.75,0.075-2.7c0.05-0.95,0.075-1.925,0.075-2.925
	C321.789,21.779,321.743,21.329,321.652,20.879z M318.714,28.867c-0.267,0.192-0.584,0.35-0.95,0.475
	c-0.367,0.125-0.784,0.188-1.25,0.188c-0.65,0-1.184-0.188-1.6-0.563c-0.417-0.375-0.625-0.854-0.625-1.437
	c0-0.417,0.112-0.763,0.337-1.038c0.225-0.275,0.525-0.492,0.9-0.65c0.375-0.158,0.808-0.267,1.3-0.325
	c0.491-0.058,0.996-0.088,1.512-0.088c0.233,0,0.471,0.004,0.712,0.013c0.242,0.008,0.479,0.021,0.713,0.037v2.075
	c-0.084,0.217-0.213,0.442-0.388,0.675C319.202,28.463,318.981,28.675,318.714,28.867z M313.95,67H314
	c0,0.136-0.009,0.27-0.01,0.406c0.001,0.032,0.01,0.062,0.01,0.094c0,0.052-0.014,0.1-0.015,0.151
	C313.661,96.621,291.86,120,265,120v6v14h-55v-14l-2.1,14h-13.652c-0.161-1.984-0.248-3.986-0.248-6
	c0-25.441,13.183-34.057,31.231-36.316C228.842,99.78,233.024,101,237.5,101c4.476,0,8.658-1.22,12.269-3.316
	c4.291,0.537,8.305,1.437,11.934,2.834c1.887,0.312,3.821,0.482,5.796,0.482c19.103,0,34.675-15.09,35.462-34h0.088
	c0.256-2.8,2.583-5,5.45-5S313.693,64.201,313.95,67z M237.5,99c-12.426,0-22.5-10.074-22.5-22.5c0-12.426,10.074-22.5,22.5-22.5
	c12.426,0,22.5,10.074,22.5,22.5C260,88.926,249.926,99,237.5,99z M170.1,140l-2.1-14v14h-55v-14l-2.1,14H97.248
	c-0.161-1.984-0.248-3.986-0.248-6c0-25.441,13.183-34.057,31.231-36.316C131.842,99.78,136.024,101,140.5,101
	c4.476,0,8.658-1.22,12.269-3.316C170.817,99.943,184,108.559,184,134c0,2.015-0.087,4.017-0.248,6H170.1z M140.5,99
	c-12.426,0-22.5-10.074-22.5-22.5c0-12.426,10.074-22.5,22.5-22.5c12.426,0,22.5,10.074,22.5,22.5C163,88.926,152.926,99,140.5,99z
	 M86,140H73.1L71,126v14H16v-14l-2.1,14H0.248C0.087,138.017,0,136.015,0,134c0-25.441,13.183-34.057,31.231-36.316
	C34.842,99.78,39.024,101,43.5,101c4.476,0,8.658-1.22,12.269-3.316C73.817,99.943,87,108.559,87,134c0,2.015-0.087,4.017-0.248,6
	H86z M43.5,99C31.074,99,21,88.926,21,76.501C21,64.074,31.074,54,43.5,54S66,64.074,66,76.501C66,88.926,55.926,99,43.5,99z"/>
</svg>
