<?xml version="1.0" encoding="utf-8"?>
<!-- Generator: Adobe Illustrator 17.0.0, SVG Export Plug-In . SVG Version: 6.00 Build 0)  -->
<!DOCTYPE svg PUBLIC "-//W3C//DTD SVG 1.1//EN" "http://www.w3.org/Graphics/SVG/1.1/DTD/svg11.dtd">
<svg version="1.1" id="Layer_1" xmlns="http://www.w3.org/2000/svg" xmlns:xlink="http://www.w3.org/1999/xlink" x="0px" y="0px"
	 width="239.694px" height="411.182px" viewBox="0 0 239.694 411.182" enable-background="new 0 0 239.694 411.182"
	 xml:space="preserve">
<path fill-rule="evenodd" clip-rule="evenodd" fill="#47AC9B" d="M207.65,203.368c-1.082,1.016-2.167,2.028-3.22,3.092
	c-18.038,18.215-29.083,40.795-33.217,64.372c0,0.03,0.009,0.058,0.009,0.087v3.843c0,5.306-4.26,9.607-9.514,9.607H77.985
	c-5.254,0-9.514-4.301-9.514-9.607v-3.843c0-0.03,0.008-0.057,0.009-0.087c-4.133-23.576-15.178-46.157-33.217-64.372
	c-1.053-1.064-2.138-2.076-3.22-3.092c-43.696-47.472-42.72-121.707,3.039-167.914c46.814-47.272,122.715-47.272,169.529,0
	C250.37,81.661,251.347,155.897,207.65,203.368z M77.034,297.818h85.625c4.729,0,8.563,3.871,8.563,8.647v1.921
	c0,4.775-3.833,8.647-8.563,8.647H77.034c-4.729,0-8.563-3.872-8.563-8.647v-1.921C68.471,301.69,72.305,297.818,77.034,297.818z
	 M77.034,330.483h85.625c4.729,0,8.563,3.871,8.563,8.646v1.921c0,4.775-3.833,8.647-8.563,8.647H77.034
	c-4.729,0-8.563-3.871-8.563-8.647v-1.921C68.471,334.354,72.305,330.483,77.034,330.483z M88.451,363.147h62.792
	c4.729,0,8.563,3.871,8.563,8.646v1.921c0,4.776-3.834,8.647-8.563,8.647H88.451c-4.729,0-8.563-3.871-8.563-8.647v-1.921
	C79.888,367.018,83.722,363.147,88.451,363.147z M118.895,391.968h1.903c4.729,0,8.563,3.871,8.563,8.646v1.921
	c0,4.776-3.834,8.647-8.563,8.647h-1.903c-4.729,0-8.563-3.871-8.563-8.647v-1.921C110.333,395.839,114.166,391.968,118.895,391.968
	z"/>
</svg>
