<svg xmlns="http://www.w3.org/2000/svg" xmlns:xlink="http://www.w3.org/1999/xlink" preserveAspectRatio="xMidYMid" width="486" height="351" viewBox="0 0 486 351">
  <defs>
    <style>

      .cls-2 {
        fill: #ea9143;
      }
    </style>
  </defs>
  <path d="M473.621,213.188 C473.534,213.245 473.438,213.303 473.350,213.360 C473.350,213.360 464.220,223.804 464.220,223.804 C464.233,223.797 464.247,223.790 464.259,223.783 C462.955,225.265 461.649,226.752 460.342,228.241 C460.342,228.241 458.257,230.626 458.257,230.626 C458.257,230.626 458.250,230.627 458.250,230.627 C420.657,273.530 383.197,317.939 377.854,323.281 C375.115,326.021 372.279,328.519 369.362,330.809 C369.486,330.586 369.589,330.374 369.711,330.151 C369.711,330.151 368.729,331.133 368.729,331.133 C368.962,331.029 369.146,330.947 369.239,330.907 C368.852,331.210 368.459,331.497 368.070,331.792 C368.070,331.792 366.986,332.876 366.986,332.876 C366.986,332.876 366.834,332.725 366.834,332.725 C266.613,405.936 71.596,232.005 55.383,215.791 C38.552,198.961 -4.066,147.335 0.327,118.788 C0.327,118.788 2.672,116.532 6.711,112.646 C6.388,114.145 5.061,120.918 6.113,125.448 C7.297,130.608 8.888,135.501 8.888,135.501 C12.287,131.981 15.711,128.470 19.157,124.965 C19.157,124.965 16.719,120.210 15.530,114.774 C14.693,110.976 16.350,104.975 17.060,102.688 C39.418,81.175 79.018,43.072 103.175,19.814 C102.929,22.518 102.844,25.939 103.537,28.597 C104.899,33.819 106.590,38.742 106.590,38.742 C106.590,38.742 117.077,28.255 117.077,28.255 C117.077,28.255 114.439,23.446 113.000,17.928 C112.426,15.730 112.659,12.809 113.082,10.274 C119.473,4.118 123.471,0.263 123.739,-0.006 C115.456,14.524 123.825,34.978 170.738,84.705 C285.375,206.217 424.416,251.107 485.344,200.061 C481.512,204.321 477.590,208.715 473.621,213.188 ZM373.273,323.043 C373.325,323.011 372.475,323.626 371.001,324.545 C371.001,324.545 372.873,323.881 372.873,323.881 C373.010,323.600 373.151,323.316 373.273,323.043 ZM365.792,331.683 C365.792,331.683 364.454,333.021 364.454,333.021 C365.122,332.730 365.759,332.451 366.315,332.206 C366.315,332.206 365.792,331.683 365.792,331.683 ZM353.228,337.656 C354.077,337.331 354.931,336.994 355.783,336.654 C355.783,336.654 364.208,328.229 364.208,328.229 C362.761,328.903 361.213,329.553 359.603,330.114 C353.218,332.282 348.577,332.725 348.616,332.695 C346.064,335.416 343.363,338.231 340.530,341.123 C340.491,341.154 345.749,340.452 353.228,337.656 ZM383.097,312.795 C388.102,307.790 418.531,272.138 451.474,234.356 C432.650,249.326 398.767,252.130 357.696,242.560 C357.696,242.560 284.655,322.183 284.655,322.183 C324.284,334.534 360.502,335.390 383.097,312.795 ZM310.314,344.461 C315.285,344.398 320.802,344.055 320.798,344.059 C323.933,340.929 326.963,337.846 329.876,334.828 C329.880,334.823 324.430,334.773 319.345,334.723 C314.915,334.669 310.837,334.535 310.838,334.534 C307.700,337.736 304.465,340.976 301.146,344.235 C301.145,344.236 305.431,344.515 310.314,344.461 ZM269.155,338.652 C273.632,339.656 278.729,340.320 278.728,340.320 C282.170,337.007 285.543,333.684 288.838,330.370 C288.839,330.369 283.734,329.378 279.075,328.314 C275.010,327.384 271.337,326.352 271.338,326.351 C267.952,329.697 264.500,333.032 260.987,336.337 C260.987,336.337 264.752,337.665 269.155,338.652 ZM329.874,234.530 C293.704,222.168 253.807,201.347 214.592,171.933 C214.592,171.933 140.744,245.781 140.744,245.781 C173.869,268.834 216.699,295.358 258.290,312.565 C258.290,312.565 329.874,234.530 329.874,234.530 ZM232.544,325.627 C236.733,327.376 241.561,328.821 241.560,328.820 C245.112,325.551 248.613,322.233 252.059,318.887 C252.059,318.887 247.201,317.119 242.804,315.303 C238.965,313.718 235.524,312.061 235.524,312.061 C232.043,315.386 228.514,318.670 224.944,321.893 C224.944,321.893 228.421,323.907 232.544,325.627 ZM198.978,310.793 C203.230,312.982 208.140,314.909 208.140,314.908 C211.716,311.741 215.258,308.505 218.763,305.217 C218.764,305.217 213.788,302.957 209.295,300.682 C205.373,298.698 201.863,296.670 201.863,296.670 C198.356,299.921 194.821,303.116 191.264,306.236 C191.264,306.236 194.792,308.640 198.978,310.793 ZM162.552,290.157 C166.726,292.869 171.558,295.376 171.559,295.375 C175.069,292.296 178.572,289.142 182.061,285.929 C182.061,285.929 177.126,283.035 172.683,280.185 C168.804,277.696 165.340,275.207 165.340,275.207 C161.886,278.405 158.431,281.545 154.982,284.616 C154.983,284.616 158.443,287.487 162.552,290.157 ZM130.835,267.522 C134.660,270.501 139.110,273.300 139.111,273.300 C142.487,270.216 145.883,267.069 149.291,263.871 C149.290,263.871 144.732,260.631 140.644,257.469 C137.073,254.707 133.897,251.968 133.897,251.968 C130.541,255.181 127.210,258.351 123.911,261.468 C123.912,261.469 127.068,264.588 130.835,267.522 ZM102.277,245.001 C105.889,248.123 110.095,251.066 110.096,251.067 C113.320,247.913 116.590,244.716 119.894,241.483 C119.894,241.483 115.583,238.060 111.723,234.731 C108.351,231.823 105.358,228.947 105.358,228.947 C102.103,232.214 98.894,235.455 95.741,238.665 C95.742,238.665 98.719,241.927 102.277,245.001 ZM79.938,225.018 C83.022,221.743 86.172,218.450 89.377,215.142 C84.341,210.387 79.321,205.644 74.322,200.915 C71.147,204.265 68.033,207.610 64.991,210.949 C69.963,215.628 74.946,220.318 79.938,225.018 ZM51.280,197.145 C54.311,193.754 57.415,190.367 60.582,186.982 C55.946,181.939 51.335,176.910 46.754,171.900 C43.572,175.311 40.448,178.731 37.393,182.162 C42.006,187.147 46.637,192.143 51.280,197.145 ZM14.193,150.968 C14.191,150.967 16.839,156.082 20.041,160.713 C23.266,165.384 27.019,169.567 27.018,169.567 C30.208,166.025 33.461,162.497 36.768,158.981 C36.768,158.980 32.658,154.193 29.330,149.262 C26.410,144.939 24.216,140.386 24.217,140.386 C20.836,143.902 17.493,147.428 14.193,150.968 ZM127.831,52.650 C124.835,48.332 122.541,43.765 122.541,43.765 C122.541,43.765 112.054,54.252 112.054,54.252 C112.054,54.252 114.730,59.370 117.937,63.992 C121.174,68.656 124.942,72.824 124.942,72.824 C124.942,72.824 135.429,62.337 135.429,62.337 C135.429,62.337 131.251,57.578 127.831,52.650 ZM145.487,75.146 C145.487,75.146 135.282,85.351 135.282,85.351 C135.282,85.351 149.104,100.206 149.104,100.206 C149.104,100.206 159.308,90.001 159.308,90.001 C159.308,90.001 145.487,75.146 145.487,75.146 ZM172.939,103.632 C172.939,103.632 162.734,113.837 162.734,113.837 C162.734,113.837 177.589,127.658 177.589,127.658 C177.589,127.658 187.794,117.453 187.794,117.453 C187.794,117.453 172.939,103.632 172.939,103.632 ZM151.562,115.928 C105.607,67.854 101.612,54.778 99.062,40.277 C97.913,41.426 23.984,110.861 23.984,110.861 C23.334,135.013 65.791,184.252 82.167,200.628 C85.676,204.137 98.183,214.621 116.374,228.211 C116.374,228.211 191.264,153.321 191.264,153.321 C177.779,141.897 164.482,129.443 151.562,115.928 ZM209.716,136.315 C206.421,133.526 203.499,130.750 203.499,130.750 C203.499,130.750 193.294,140.955 193.294,140.955 C193.294,140.955 196.215,144.159 199.737,147.140 C203.314,150.168 207.494,152.975 207.494,152.975 C207.494,152.975 217.699,142.770 217.699,142.770 C217.699,142.770 213.488,139.508 209.716,136.315 ZM237.903,157.941 C234.437,155.323 231.354,152.708 231.354,152.708 C231.354,152.708 221.150,162.912 221.150,162.912 C221.150,162.912 224.243,165.944 227.947,168.742 C231.711,171.584 236.087,174.194 236.087,174.194 C236.087,174.194 246.292,163.989 246.292,163.989 C246.292,163.989 241.871,160.938 237.903,157.941 ZM268.932,179.346 C265.181,177.013 261.831,174.665 261.831,174.665 C261.831,174.665 251.627,184.870 251.627,184.870 C251.627,184.870 255.007,187.614 259.016,190.107 C263.089,192.640 267.793,194.923 267.793,194.923 C267.793,194.923 277.998,184.718 277.998,184.718 C277.998,184.718 273.227,182.017 268.932,179.346 ZM304.337,198.515 C300.537,196.650 297.143,194.738 297.143,194.738 C297.143,194.738 286.938,204.943 286.938,204.943 C286.938,204.943 290.367,207.218 294.428,209.212 C298.553,211.238 303.312,212.985 303.312,212.985 C303.312,212.985 313.517,202.780 313.517,202.780 C313.517,202.780 308.687,200.652 304.337,198.515 ZM336.953,212.355 C333.191,210.831 329.832,209.240 329.832,209.240 C329.832,209.240 319.627,219.445 319.627,219.445 C319.627,219.445 323.018,221.375 327.039,223.004 C331.123,224.658 335.838,226.012 335.838,226.012 C335.838,226.012 346.043,215.807 346.043,215.807 C346.043,215.807 341.260,214.099 336.953,212.355 ZM372.889,224.987 C368.805,224.090 365.143,223.087 365.143,223.087 C365.143,223.087 354.938,233.292 354.938,233.292 C354.938,233.292 358.654,234.590 363.020,235.548 C367.455,236.522 372.542,237.155 372.542,237.155 C372.542,237.155 382.746,226.950 382.746,226.950 C382.746,226.950 377.566,226.013 372.889,224.987 ZM414.367,230.546 C409.636,230.714 405.369,230.708 405.369,230.708 C405.369,230.708 395.164,240.913 395.164,240.913 C395.164,240.913 399.531,241.140 404.588,240.960 C409.725,240.777 415.553,240.188 415.553,240.188 C415.553,240.188 425.758,229.983 425.758,229.983 C425.758,229.983 419.784,230.353 414.367,230.546 ZM461.381,220.236 C452.677,224.377 447.310,225.471 447.310,225.471 C447.310,225.471 437.105,235.676 437.105,235.676 C437.105,235.676 442.850,234.524 452.154,230.097 C452.252,230.051 452.358,229.996 452.456,229.949 C452.456,229.949 461.465,220.193 461.465,220.193 C461.438,220.206 461.409,220.223 461.381,220.236 Z" id="path-1" class="cls-2" fill-rule="evenodd"/>
</svg>
