<?xml version="1.0" encoding="utf-8"?>
<!-- Generator: Adobe Illustrator 17.0.0, SVG Export Plug-In . SVG Version: 6.00 Build 0)  -->
<!DOCTYPE svg PUBLIC "-//W3C//DTD SVG 1.1//EN" "http://www.w3.org/Graphics/SVG/1.1/DTD/svg11.dtd">
<svg version="1.1" id="Layer_1" xmlns="http://www.w3.org/2000/svg" xmlns:xlink="http://www.w3.org/1999/xlink" x="0px" y="0px"
	 width="187px" height="245.999px" viewBox="0 0 187 245.999" enable-background="new 0 0 187 245.999" xml:space="preserve">
<path fill-rule="evenodd" clip-rule="evenodd" fill="#F9CD89" d="M121.97,110.449c0,0.068,0.005,0.129,0.006,0.197
	c-0.001,0.04-0.006,0.078-0.006,0.117c0,0.156,0.014,0.309,0.023,0.462c0.003,0.06,0.005,0.122,0.009,0.181
	c0.005,0.059,0.01,0.118,0.017,0.176c0.216,2.646,1.223,4.259,3.01,5.081c1.17,0.827,2.592,1.316,4.131,1.316
	c2.145,0,4.065-0.948,5.382-2.442l1.183,1.188c0,0-2.786,3.765-7.503,3.765c-5.359,0-13.21-4.921-9.405-14.298
	c-3.117,3.39-6.272,6.243-9.369,8.51v0.14c0.691,0,1.251,0.562,1.251,1.255c0,0.693-0.56,1.255-1.251,1.255
	c-5.181,0-9.381,5.339-9.381,11.923c0,4.091,1.623,7.698,4.093,9.846c-1.738,4.143-2.842,10.278-2.842,17.138
	c0,12.477,3.64,22.592,8.131,22.592v0.034c5.571,0.974,10.049,2.441,12.761,4.201l8.503,4.55l2.502,6.904H53.786l3.127-6.904
	l7.487-4.292c2.662-1.875,7.31-3.438,13.152-4.459v-0.034c4.49,0,8.13-10.115,8.13-22.592c0-6.861-1.105-12.995-2.842-17.138
	c2.47-2.148,4.093-5.755,4.093-9.846c0-6.585-4.2-11.923-9.381-11.923c-0.691,0-1.251-0.562-1.251-1.255
	c0-0.693,0.56-1.255,1.251-1.255v-0.14c-3.097-2.267-6.252-5.119-9.369-8.51c3.805,9.377-4.046,14.298-9.405,14.298
	c-4.718,0-7.503-3.765-7.503-3.765l1.183-1.188c1.318,1.494,3.237,2.442,5.382,2.442c1.539,0,2.962-0.489,4.132-1.316
	c1.787-0.822,2.794-2.436,3.01-5.081c0.007-0.058,0.012-0.117,0.017-0.176c0.004-0.059,0.006-0.121,0.009-0.181
	c0.01-0.153,0.023-0.306,0.023-0.462c0-0.04-0.005-0.077-0.006-0.117c0.001-0.067,0.006-0.129,0.006-0.197
	C65.03,90.425,0,67.349,0,23.847C0,12.978,5.2,3.138,18.133,3.138c10.664,0,16.484,5.905,18.203,13.664
	c-0.04-1.538-0.062-3.089-0.062-4.654c0-1.959,0.024-3.906,0.069-5.841C54.282,2.217,73.506,0,93.5,0s39.218,2.217,57.157,6.307
	c0.045,1.935,0.069,3.882,0.069,5.841c0,1.565-0.022,3.116-0.062,4.654c1.718-7.759,7.539-13.664,18.203-13.664
	C181.8,3.138,187,12.978,187,23.847C187,67.349,121.97,90.425,121.97,110.449z M36.732,24.686
	c-0.886,7.964-5.467,10.457-5.467,10.457l-1.876-1.882c7.932-11.646,0.343-23.219-10.005-23.219
	c-10.347,0-13.131,11.776-13.131,18.199c0,22.094,36.381,50.302,52.727,66.083C47.932,77.615,38.812,53.759,36.732,24.686z
	 M167.616,10.041c-10.348,0-17.937,11.573-10.005,23.219l-1.876,1.882c0,0-4.581-2.493-5.467-10.457
	c-2.08,29.073-11.199,52.929-22.247,69.637c16.345-15.781,52.726-43.989,52.726-66.083
	C180.747,21.817,177.964,10.041,167.616,10.041z M133.214,222.78v5.021v7.531H53.786v-7.531v-5.021v-27.613h79.428V222.78z
	 M122.582,199.561H64.418v26.984h58.164V199.561z M121.331,225.29H65.669v-24.474h55.662V225.29z M53.161,227.801v7.531v0.627h0.625
	h79.428h0.626v-0.627v-7.531h1.251l4.378,11.923H47.532l4.378-11.923H53.161z M139.468,245.999H47.532v-5.647h91.936V245.999z"/>
</svg>
