<?xml version="1.0" encoding="utf-8"?>
<!-- Generator: Adobe Illustrator 17.0.0, SVG Export Plug-In . SVG Version: 6.00 Build 0)  -->
<!DOCTYPE svg PUBLIC "-//W3C//DTD SVG 1.1//EN" "http://www.w3.org/Graphics/SVG/1.1/DTD/svg11.dtd">
<svg version="1.1" id="Layer_1" xmlns="http://www.w3.org/2000/svg" xmlns:xlink="http://www.w3.org/1999/xlink" x="0px" y="0px"
	 width="116px" height="74px" viewBox="0 0 116 74" enable-background="new 0 0 116 74" xml:space="preserve">
<g>
	<g>
		<path fill="#FFFFFF" d="M114,0H86c-1.104,0-2,0.895-2,2v28c0,1.105,0.896,2,2,2h28c1.105,0,2-0.895,2-2V2
			C116,0.895,115.105,0,114,0z M114,29c0,0.552-0.448,1-1,1H87c-0.552,0-1-0.448-1-1V3c0-0.552,0.448-1,1-1h26c0.552,0,1,0.448,1,1
			V29z M30,42H2c-1.104,0-2,0.895-2,2v28c0,1.105,0.896,2,2,2h28c1.105,0,2-0.895,2-2V44C32,42.895,31.105,42,30,42z M21,51.645
			h-2.177c-0.431,0-0.866,0.481-0.866,0.839c0,0.357,0,2.394,0,2.394s2.69,0,3.039,0c-0.122,1.836-0.373,3.514-0.373,3.514h-2.681
			V68h-3.996v-9.608H12v-3.501h1.945c0,0,0-2.339,0-2.863S13.847,48,18.04,48H21V51.645z M13.945,10.028c0,0.524,0,2.863,0,2.863H12
			v3.501h1.945V26h3.996v-9.608h2.681c0,0,0.251-1.678,0.373-3.514c-0.349,0-3.039,0-3.039,0s0-2.037,0-2.394
			c0-0.358,0.436-0.839,0.866-0.839H21V6h-2.96C13.847,6,13.945,9.505,13.945,10.028z M30,0H2C0.895,0,0,0.895,0,2v28
			c0,1.104,0.895,2,2,2h28c1.104,0,2-0.895,2-2V2C32,0.895,31.105,0,30,0z M30,29c0,0.552-0.448,1-1,1H3c-0.552,0-1-0.448-1-1V3
			c0-0.552,0.448-1,1-1h26c0.552,0,1,0.448,1,1V29z M114,42H86c-1.104,0-2,0.895-2,2v28c0,1.105,0.896,2,2,2h28c1.105,0,2-0.895,2-2
			V44C116,42.895,115.105,42,114,42z M107.514,59.944c0.129,0.165,0.436,0.489,0.922,0.97h0.011l0.011,0.012l0.012,0.011
			l0.022,0.024c1.069,1.033,1.794,1.905,2.174,2.614c0.023,0.04,0.048,0.089,0.074,0.148c0.026,0.059,0.053,0.164,0.08,0.313
			c0.026,0.15,0.025,0.284-0.006,0.403c-0.031,0.118-0.125,0.226-0.284,0.325c-0.159,0.099-0.383,0.148-0.671,0.148l-2.914,0.048
			c-0.182,0.04-0.394,0.02-0.637-0.06c-0.243-0.079-0.44-0.165-0.592-0.26l-0.228-0.142c-0.227-0.166-0.492-0.418-0.797-0.757
			c-0.303-0.339-0.563-0.645-0.779-0.917c-0.217-0.272-0.448-0.5-0.694-0.686c-0.247-0.185-0.461-0.247-0.643-0.184
			c-0.023,0.008-0.053,0.022-0.091,0.042c-0.038,0.02-0.103,0.077-0.194,0.172c-0.091,0.094-0.172,0.211-0.245,0.349
			c-0.072,0.138-0.137,0.343-0.194,0.615c-0.057,0.272-0.081,0.578-0.074,0.917c0,0.118-0.014,0.227-0.04,0.325
			c-0.026,0.099-0.055,0.172-0.085,0.219l-0.045,0.059c-0.136,0.15-0.338,0.237-0.603,0.26h-1.309
			c-0.539,0.032-1.093-0.033-1.661-0.195c-0.57-0.162-1.068-0.371-1.497-0.627c-0.428-0.257-0.819-0.517-1.172-0.782
			c-0.353-0.264-0.621-0.491-0.803-0.68l-0.284-0.284c-0.076-0.079-0.18-0.196-0.313-0.354c-0.132-0.158-0.404-0.517-0.814-1.077
			c-0.41-0.559-0.811-1.155-1.206-1.786c-0.394-0.631-0.859-1.463-1.393-2.497c-0.535-1.033-1.03-2.106-1.485-3.218
			C89.023,53.286,89,53.18,89,53.093c0-0.087,0.011-0.15,0.034-0.189l0.046-0.071c0.114-0.15,0.33-0.225,0.649-0.225l3.118-0.023
			c0.092,0.016,0.178,0.041,0.262,0.077c0.083,0.036,0.144,0.07,0.182,0.101l0.057,0.035c0.122,0.087,0.213,0.213,0.274,0.379
			c0.151,0.395,0.326,0.803,0.523,1.225c0.197,0.423,0.353,0.744,0.467,0.964l0.182,0.343c0.22,0.474,0.432,0.883,0.637,1.23
			c0.205,0.347,0.39,0.618,0.552,0.81c0.163,0.194,0.32,0.346,0.472,0.456c0.152,0.111,0.281,0.166,0.387,0.166
			c0.107,0,0.209-0.02,0.308-0.06c0.015-0.008,0.034-0.028,0.057-0.059c0.023-0.032,0.069-0.118,0.137-0.26
			c0.068-0.143,0.119-0.328,0.154-0.557c0.034-0.228,0.07-0.548,0.108-0.958c0.038-0.411,0.038-0.904,0-1.479
			c-0.015-0.315-0.049-0.603-0.102-0.864c-0.052-0.26-0.106-0.442-0.159-0.544l-0.068-0.143c-0.19-0.268-0.512-0.438-0.968-0.508
			c-0.098-0.016-0.079-0.111,0.057-0.284c0.129-0.15,0.273-0.268,0.432-0.354c0.402-0.205,1.309-0.3,2.72-0.285
			c0.622,0.009,1.134,0.06,1.536,0.154c0.152,0.04,0.278,0.093,0.381,0.16c0.102,0.067,0.18,0.162,0.233,0.284
			c0.053,0.123,0.093,0.249,0.12,0.379c0.026,0.13,0.04,0.31,0.04,0.538c0,0.229-0.004,0.446-0.012,0.651s-0.017,0.483-0.029,0.834
			c-0.011,0.351-0.017,0.676-0.017,0.976c0,0.086-0.004,0.252-0.012,0.497c-0.008,0.244-0.009,0.434-0.006,0.568
			c0.004,0.134,0.018,0.293,0.04,0.479c0.022,0.186,0.066,0.34,0.131,0.462c0.064,0.122,0.149,0.219,0.256,0.29
			c0.061,0.016,0.125,0.031,0.194,0.048c0.068,0.016,0.166-0.028,0.296-0.131c0.129-0.102,0.273-0.238,0.432-0.408
			c0.159-0.169,0.356-0.434,0.591-0.793c0.235-0.359,0.493-0.783,0.774-1.272c0.456-0.82,0.861-1.707,1.218-2.662
			c0.03-0.079,0.068-0.148,0.113-0.207c0.046-0.06,0.087-0.101,0.125-0.124l0.045-0.035l0.056-0.03c0,0,0.05-0.012,0.149-0.035
			c0.098-0.024,0.175-0.025,0.227-0.006l3.278-0.023c0.296-0.04,0.539-0.03,0.728,0.03c0.19,0.059,0.307,0.124,0.353,0.195
			l0.068,0.118c0.175,0.505-0.394,1.664-1.707,3.479c-0.181,0.252-0.428,0.588-0.739,1.005c-0.592,0.789-0.933,1.305-1.024,1.55
			C107.226,59.308,107.279,59.628,107.514,59.944z M72,42H44c-1.104,0-2,0.895-2,2v28c0,1.105,0.896,2,2,2h28c1.105,0,2-0.895,2-2
			V44C74,42.895,73.105,42,72,42z M64.359,66.393C63.932,66.797,63.419,67,62.821,67h-4.308c-1.795,0-3.33-0.602-4.604-1.809
			C52.636,63.986,52,62.534,52,60.835v-9.77c0-0.583,0.212-1.072,0.636-1.469C53.059,49.2,53.578,49,54.189,49
			c0.594,0,1.105,0.203,1.528,0.608c0.425,0.404,0.639,0.888,0.639,1.455v4.5h6.133c0.557,0,1.035,0.188,1.432,0.562
			c0.397,0.375,0.596,0.825,0.596,1.35c0,0.523-0.199,0.973-0.595,1.35c-0.397,0.374-0.873,0.561-1.427,0.561h-6.14v1.448
			c0,0.568,0.208,1.05,0.629,1.448c0.418,0.397,0.927,0.595,1.527,0.595h4.309c0.599,0,1.113,0.204,1.54,0.607
			C64.787,63.888,65,64.373,65,64.939C65,65.505,64.787,65.99,64.359,66.393z M62.82,20.876H58.51c-0.599,0-1.108-0.198-1.527-0.595
			c-0.421-0.398-0.629-0.879-0.629-1.448v-1.448h6.14c0.554,0,1.03-0.188,1.427-0.561c0.396-0.376,0.595-0.826,0.595-1.35
			c0-0.525-0.199-0.975-0.596-1.35c-0.398-0.374-0.876-0.562-1.432-0.562h-6.133v-4.5c0-0.566-0.214-1.051-0.639-1.455
			C55.294,7.203,54.783,7,54.189,7c-0.611,0-1.13,0.2-1.553,0.595C52.212,7.992,52,8.481,52,9.064v9.77
			c0,1.7,0.636,3.151,1.909,4.357C55.183,24.398,56.718,25,58.513,25h4.308c0.598,0,1.112-0.203,1.539-0.608
			C64.787,23.99,65,23.505,65,22.939c0-0.566-0.214-1.051-0.641-1.455C63.932,21.08,63.418,20.876,62.82,20.876z M72,0H44
			c-1.104,0-2,0.895-2,2v28c0,1.105,0.896,2,2,2h28c1.105,0,2-0.895,2-2V2C74,0.895,73.105,0,72,0z M72,29c0,0.552-0.448,1-1,1H45
			c-0.552,0-1-0.448-1-1V3c0-0.552,0.448-1,1-1h26c0.552,0,1,0.448,1,1V29z M108.379,15.435c0.311-0.418,0.558-0.753,0.739-1.005
			c1.313-1.815,1.882-2.974,1.707-3.479l-0.068-0.118c-0.046-0.071-0.163-0.136-0.353-0.195c-0.19-0.06-0.432-0.07-0.728-0.03
			l-3.278,0.023c-0.052-0.019-0.129-0.018-0.227,0.006c-0.099,0.023-0.149,0.035-0.149,0.035l-0.056,0.03l-0.045,0.035
			c-0.038,0.023-0.08,0.064-0.125,0.124c-0.045,0.059-0.083,0.128-0.113,0.207c-0.357,0.954-0.762,1.842-1.218,2.662
			c-0.281,0.489-0.539,0.913-0.774,1.272c-0.235,0.359-0.432,0.623-0.591,0.793c-0.16,0.17-0.303,0.306-0.432,0.408
			c-0.129,0.103-0.228,0.146-0.296,0.131c-0.068-0.016-0.133-0.032-0.194-0.048c-0.107-0.071-0.192-0.167-0.256-0.29
			c-0.065-0.122-0.108-0.276-0.131-0.462c-0.023-0.185-0.036-0.345-0.04-0.479c-0.003-0.134-0.001-0.324,0.006-0.568
			c0.008-0.245,0.012-0.411,0.012-0.497c0-0.3,0.006-0.625,0.017-0.976c0.011-0.351,0.021-0.629,0.029-0.834
			s0.012-0.422,0.012-0.651c0-0.228-0.014-0.408-0.04-0.538c-0.026-0.13-0.066-0.256-0.12-0.379
			c-0.053-0.122-0.131-0.217-0.233-0.284c-0.102-0.067-0.229-0.12-0.381-0.16c-0.402-0.094-0.914-0.145-1.536-0.154
			c-1.411-0.016-2.318,0.08-2.72,0.285c-0.16,0.086-0.304,0.205-0.432,0.354c-0.136,0.174-0.156,0.269-0.057,0.284
			c0.456,0.071,0.778,0.24,0.968,0.508l0.068,0.143c0.053,0.102,0.107,0.284,0.159,0.544c0.053,0.26,0.087,0.548,0.102,0.864
			c0.038,0.576,0.038,1.069,0,1.479c-0.037,0.41-0.074,0.729-0.108,0.958c-0.034,0.229-0.085,0.414-0.154,0.557
			c-0.068,0.142-0.114,0.228-0.137,0.26c-0.023,0.031-0.042,0.051-0.057,0.059c-0.099,0.04-0.201,0.06-0.308,0.06
			c-0.106,0-0.235-0.055-0.387-0.166c-0.151-0.11-0.309-0.262-0.472-0.456c-0.163-0.193-0.347-0.463-0.552-0.81
			c-0.205-0.347-0.417-0.757-0.637-1.23l-0.182-0.343c-0.114-0.221-0.269-0.542-0.467-0.964c-0.197-0.422-0.372-0.83-0.523-1.225
			c-0.061-0.165-0.152-0.291-0.274-0.379l-0.057-0.035c-0.038-0.031-0.099-0.065-0.182-0.101c-0.084-0.035-0.17-0.061-0.262-0.077
			l-3.118,0.023c-0.318,0-0.535,0.075-0.649,0.225l-0.046,0.071C89.012,10.943,89,11.006,89,11.093c0,0.087,0.023,0.193,0.068,0.32
			c0.456,1.112,0.95,2.185,1.485,3.218c0.535,1.034,0.999,1.866,1.393,2.497c0.395,0.631,0.797,1.227,1.206,1.786
			c0.41,0.56,0.681,0.919,0.814,1.077c0.133,0.158,0.237,0.276,0.313,0.354l0.284,0.284c0.182,0.189,0.449,0.416,0.803,0.68
			c0.353,0.265,0.743,0.525,1.172,0.782c0.429,0.256,0.927,0.465,1.497,0.627c0.569,0.162,1.123,0.227,1.661,0.195h1.309
			c0.265-0.023,0.466-0.111,0.603-0.26l0.045-0.059c0.031-0.047,0.059-0.121,0.085-0.219c0.027-0.098,0.04-0.207,0.04-0.325
			c-0.008-0.339,0.017-0.645,0.074-0.917c0.057-0.271,0.121-0.477,0.194-0.615c0.072-0.138,0.153-0.254,0.245-0.349
			c0.091-0.095,0.156-0.152,0.194-0.172c0.038-0.02,0.068-0.033,0.091-0.042c0.182-0.063,0.396-0.001,0.643,0.184
			c0.246,0.186,0.477,0.414,0.694,0.686c0.216,0.272,0.476,0.578,0.779,0.917c0.304,0.339,0.57,0.591,0.797,0.757l0.228,0.142
			c0.152,0.095,0.349,0.182,0.592,0.26c0.243,0.079,0.455,0.099,0.637,0.06l2.914-0.048c0.288,0,0.512-0.05,0.671-0.148
			c0.16-0.099,0.254-0.207,0.284-0.325c0.031-0.118,0.032-0.253,0.006-0.403c-0.027-0.15-0.054-0.255-0.08-0.313
			c-0.027-0.06-0.051-0.108-0.074-0.148c-0.379-0.71-1.104-1.581-2.174-2.614l-0.022-0.024l-0.012-0.011l-0.011-0.012h-0.011
			c-0.486-0.481-0.793-0.805-0.922-0.97c-0.235-0.315-0.289-0.635-0.16-0.959C107.446,16.74,107.787,16.224,108.379,15.435z"/>
	</g>
</g>
</svg>
