<?xml version="1.0" encoding="utf-8"?>
<!-- Generator: Adobe Illustrator 17.0.0, SVG Export Plug-In . SVG Version: 6.00 Build 0)  -->
<!DOCTYPE svg PUBLIC "-//W3C//DTD SVG 1.1//EN" "http://www.w3.org/Graphics/SVG/1.1/DTD/svg11.dtd">
<svg version="1.1" id="Layer_1" xmlns="http://www.w3.org/2000/svg" xmlns:xlink="http://www.w3.org/1999/xlink" x="0px" y="0px"
	 width="186px" height="185.999px" viewBox="0 0 186 185.999" enable-background="new 0 0 186 185.999" xml:space="preserve">
<path fill-rule="evenodd" clip-rule="evenodd" fill="#EE786D" d="M131.522,185.999H54.478L0,131.522V54.478L54.478,0h77.044
	L186,54.478v77.044L131.522,185.999z M179,57.378L128.622,7H57.378L7,57.378v71.244L57.378,179h71.245L179,128.622V57.378z M90,160
	c-34.395,0-42-27.708-42-44c0-3.689,0-5.326,0-6l0.116-0.348C48.049,109.276,48,108.894,48,108.5v-57c0-3.59,2.91-6.5,6.5-6.5h1
	c3.59,0,6.5,2.91,6.5,6.5V84v4.289c0.942-0.094,1.95-0.194,3-0.298V84V40c0-4.418,3.582-8,8-8h1c4.418,0,8,3.582,8,8v38v8.429
	c1.079-0.087,2.092-0.165,3-0.229V78V28c0-4.418,3.582-8,8-8h1c4.418,0,8,3.582,8,8v51v7.392c0.994,0.068,1.995,0.146,3,0.237V79V40
	c0-3.866,3.134-7,7-7h1c3.866,0,7,3.134,7,7v49.194c0.095,0.026,0.185,0.06,0.28,0.087C120.115,89.829,120,90.398,120,91
	c0,3.314,2.686,6,6,6c2.2,0,4.103-1.197,5.147-2.962c0.111,0.074,0.237,0.137,0.347,0.212c3.401-7.089,6.143-12.989,6.143-12.989
	c5.891-12.068,12.97-12.586,16.444-10.89l0.899,0.439c3.474,1.696,2.22,4.571,0.524,8.045c0,0-4.999,14.8-11.443,28
	c-2.441,5.001-4.602,9.699-6.294,13.479c-0.782,2.201-1.802,4.544-3.078,7.035C134.246,128.407,134,129,134,129
	c-0.19,0.389-0.458,0.75-0.773,1.09c-0.077,0.138-0.148,0.271-0.227,0.41C124.929,144.652,113.748,160,90,160z"/>
</svg>
