<?xml version="1.0" encoding="utf-8"?>
<!-- Generator: Adobe Illustrator 17.0.0, SVG Export Plug-In . SVG Version: 6.00 Build 0)  -->
<!DOCTYPE svg PUBLIC "-//W3C//DTD SVG 1.1//EN" "http://www.w3.org/Graphics/SVG/1.1/DTD/svg11.dtd">
<svg version="1.1" id="Layer_1" xmlns="http://www.w3.org/2000/svg" xmlns:xlink="http://www.w3.org/1999/xlink" x="0px" y="0px"
	 width="149.95px" height="149.95px" viewBox="0 0 149.95 149.95" enable-background="new 0 0 149.95 149.95" xml:space="preserve">
<path fill-rule="evenodd" clip-rule="evenodd" fill="#47AC9B" d="M75.975,5V0c40.624,0.534,73.441,33.351,73.975,73.975h-5
	C144.417,36.113,113.838,5.533,75.975,5z M89.975,74.975c0,8.285-6.716,15-15,15c-8.284,0-15-6.716-15-15s6.716-15,15-15
	C83.259,59.975,89.975,66.69,89.975,74.975z M55.024,73.975h-5c0.516-13.004,10.945-23.434,23.951-23.949v5
	C63.731,55.533,55.532,63.731,55.024,73.975z M45.025,73.975H40C40.521,55.442,55.442,40.522,73.975,40v5.025
	C58.208,45.546,45.546,58.209,45.025,73.975z M35,73.975h-5C30.527,49.919,49.919,30.527,73.975,30v5
	C52.681,35.525,35.524,52.681,35,73.975z M25,73.975h-5C20.53,44.396,44.397,20.53,73.975,20v5
	C47.158,25.528,25.528,47.158,25,73.975z M15,73.975h-5C10.532,38.874,38.874,10.532,73.975,10v5
	C41.635,15.531,15.531,41.635,15,73.975z M5,73.975H0C0.534,33.351,33.351,0.533,73.975,0v5C36.113,5.532,5.533,36.113,5,73.975z
	 M73.975,139.95C38.874,139.418,10.532,111.076,10,75.975h5c0.531,32.339,26.635,58.444,58.975,58.975V139.95z M73.975,129.95
	C44.396,129.42,20.529,105.553,20,75.975h5c0.528,26.817,22.158,48.447,48.975,48.975V129.95z M73.975,119.95
	C49.919,119.423,30.526,100.03,30,75.975h5c0.524,21.294,17.681,38.451,38.975,38.975V119.95z M55.024,75.975
	c0.508,10.243,8.707,18.442,18.951,18.95v4.999C60.97,99.409,50.54,88.979,50.024,75.975H55.024z M73.975,109.95
	C55.442,109.428,40.521,94.508,40,75.975h5.024c0.521,15.765,13.184,28.429,28.951,28.95V109.95z M73.975,144.95v5
	C33.351,149.417,0.533,116.599,0,75.975h5C5.532,113.837,36.112,144.417,73.975,144.95z M94.926,75.975h5
	c-0.516,13.004-10.945,23.434-23.95,23.949v-4.999C86.22,94.417,94.418,86.218,94.926,75.975z M104.925,75.975h5.025
	c-0.521,18.533-15.442,33.453-33.975,33.975v-5.025C91.742,104.403,104.404,91.74,104.925,75.975z M114.95,75.975h5
	c-0.526,24.055-19.919,43.448-43.975,43.975v-5C97.27,114.425,114.426,97.269,114.95,75.975z M124.95,75.975h5
	c-0.529,29.578-24.396,53.445-53.975,53.975v-5C102.792,124.422,124.422,102.792,124.95,75.975z M75.975,10
	c35.101,0.532,63.443,28.874,63.975,63.974h-5C134.419,41.635,108.315,15.531,75.975,15V10z M75.975,20
	c29.578,0.53,53.445,24.396,53.975,53.974h-5C124.422,47.158,102.792,25.529,75.975,25V20z M75.975,30
	c24.055,0.526,43.448,19.919,43.975,43.974h-5C114.426,52.681,97.269,35.525,75.975,35V30z M94.926,73.975
	c-0.508-10.243-8.706-18.441-18.951-18.949v-5c13.005,0.516,23.434,10.946,23.95,23.949H94.926z M75.975,40
	c18.533,0.522,33.453,15.442,33.975,33.974h-5.025c-0.521-15.765-13.184-28.428-28.95-28.949V40z M134.95,75.975h5
	c-0.532,35.101-28.874,63.443-63.975,63.975v-5C108.315,134.419,134.419,108.314,134.95,75.975z M144.95,75.975h5
	c-0.533,40.624-33.351,73.442-73.975,73.975v-5C113.838,144.417,144.417,113.837,144.95,75.975z"/>
</svg>
