<?xml version="1.0" encoding="utf-8"?>
<!-- Generator: Adobe Illustrator 17.0.0, SVG Export Plug-In . SVG Version: 6.00 Build 0)  -->
<!DOCTYPE svg PUBLIC "-//W3C//DTD SVG 1.1//EN" "http://www.w3.org/Graphics/SVG/1.1/DTD/svg11.dtd">
<svg version="1.1" id="Layer_1" xmlns="http://www.w3.org/2000/svg" xmlns:xlink="http://www.w3.org/1999/xlink" x="0px" y="0px"
	 width="362.213px" height="384.947px" viewBox="0 0 362.213 384.947" enable-background="new 0 0 362.213 384.947"
	 xml:space="preserve">
<g>
	<g>
		<path fill-rule="evenodd" clip-rule="evenodd" fill="#89C54D" d="M63,198.827H15c-8.284,0-15,6.716-15,15v147
			c0,8.284,6.716,15,15,15h48c8.284,0,15-6.716,15-15v-147C78,205.542,71.284,198.827,63,198.827z M350,270.827
			c1.188-7.467,12.213-10.273,12.213-25.709c0-15.436-11.904-23.009-8.213-30.334c7.23-14.348,8-18.29,8-30.721
			c0-39.45-70.084-31.236-111-31.236c-24.026,0-17.651-6.226-7-36c3.097-8.658,21-34.557,21-63C265,40.164,259.553,0,219.261,0
			c-9.728,0-6.599,16.403-9.261,33.827c-2.735,17.9-4.861,32.813-20,54c-6.432,9.003-19.54,15.451-29,31
			c-10.891,17.902-14.672,34.184-25.449,51.789c-4.96,8.103-10.505,18.682-16.984,24.552c-7.441,6.742-15.796,7.549-20.567,13.659
			c-8.338,10.678-8,24-8,24c0,2.233,0,97.894,0,110c0,0-2.448,18.488,13,24c21.549,7.688,60.974,11.298,96.641,14.224
			c36.238,2.973,74.758,7.142,101.359-0.224c14.926-4.133,28.613-15.298,33.873-28.342c3.092-7.668-0.654-13.986,1.738-21.908
			c3.516-11.641,13.016-11.221,15.772-30.264C354.138,286.782,348.521,280.124,350,270.827z"/>
	</g>
</g>
</svg>
