<svg xmlns="http://www.w3.org/2000/svg" xmlns:xlink="http://www.w3.org/1999/xlink" preserveAspectRatio="xMidYMid" width="591" height="455" viewBox="0 0 591 455">
  <defs>
    <style>

      .cls-2 {
        fill: #ea9143;
      }
    </style>
  </defs>
  <path d="M581.481,348.578 C578.219,351.627 574.318,353.750 570.159,354.864 C565.113,356.217 559.686,356.085 554.561,354.323 C554.561,354.323 457.992,331.905 457.992,331.905 C457.992,331.905 461.607,345.401 461.607,345.401 C463.779,353.508 458.969,361.841 450.864,364.013 C450.864,364.013 113.338,454.477 113.338,454.477 C105.233,456.649 96.902,451.838 94.731,443.731 C94.731,443.731 49.904,276.391 49.904,276.391 C47.732,268.284 52.542,259.951 60.647,257.779 C60.647,257.779 79.133,252.825 79.133,252.825 C43.562,244.445 13.622,217.278 3.501,179.497 C-11.158,124.776 21.308,68.528 76.015,53.866 C119.716,42.153 164.365,60.537 188.044,96.293 C190.678,53.485 220.156,15.233 263.856,3.520 C318.563,-11.142 374.796,21.332 389.455,76.054 C399.575,113.835 387.226,152.336 360.609,177.383 C360.609,177.383 398.173,167.315 398.173,167.315 C406.278,165.143 414.609,169.954 416.780,178.061 C416.780,178.061 420.402,191.580 420.402,191.580 C420.402,191.580 492.827,123.868 492.827,123.868 C499.316,116.410 509.385,113.145 519.013,115.380 C528.640,117.615 536.256,124.984 538.817,134.544 C538.817,134.544 589.053,322.077 589.053,322.077 C591.613,331.636 588.702,341.827 581.481,348.578 ZM135.576,144.099 C130.690,125.858 111.946,115.033 93.710,119.921 C75.474,124.808 64.652,143.557 69.539,161.798 C74.425,180.039 93.169,190.863 111.405,185.976 C129.641,181.088 140.463,162.339 135.576,144.099 ZM204.926,159.281 C203.306,185.488 191.624,209.985 172.769,227.728 C172.769,227.728 266.974,202.479 266.974,202.479 C241.777,196.544 219.428,181.167 204.926,159.281 ZM323.417,93.754 C318.531,75.513 299.787,64.688 281.551,69.576 C263.315,74.463 252.493,93.212 257.379,111.453 C262.266,129.694 281.010,140.518 299.246,135.631 C317.481,130.743 328.303,111.994 323.417,93.754 Z" id="path-1" class="cls-2" fill-rule="evenodd"/>
</svg>
