<?xml version="1.0" encoding="utf-8"?>
<!-- Generator: Adobe Illustrator 17.0.0, SVG Export Plug-In . SVG Version: 6.00 Build 0)  -->
<!DOCTYPE svg PUBLIC "-//W3C//DTD SVG 1.1//EN" "http://www.w3.org/Graphics/SVG/1.1/DTD/svg11.dtd">
<svg version="1.1" id="Layer_1" xmlns="http://www.w3.org/2000/svg" xmlns:xlink="http://www.w3.org/1999/xlink" x="0px" y="0px"
	 width="943.195px" height="477.526px" viewBox="0 0 943.195 477.526" enable-background="new 0 0 943.195 477.526"
	 xml:space="preserve">
<path fill-rule="evenodd" clip-rule="evenodd" fill="#3E5871" d="M908.818,293.745c-23.336,18.912-43.404,25.693-50.253,24.338
	c-0.237-7.82,10.035-25.216,34.246-44.126c24.21-18.911,44.596-24.418,50.331-24.338
	C944.098,255.046,932.073,274.834,908.818,293.745z M873.539,276.51c-3.267-7.181-0.479-27.211,14.573-53.941
	c15.051-26.811,31.696-39.737,37.111-41.971c2.947,4.627-0.558,27.529-14.813,54.021C896.235,261.03,880.307,275.073,873.539,276.51
	z M882.936,211.158c-4.062-6.703-3.425-26.891,8.521-55.217c12.025-28.247,27.236-43.009,32.333-45.722
	c3.424,4.227,2.469,27.448-8.76,55.296C903.8,193.364,889.545,209.004,882.936,211.158z M861.672,112.852
	c-0.797-30.721,6.848-50.43,10.273-55.058c4.938,2.474,13.697,23.858,15.131,53.862c1.353,30.081-5.098,50.19-10.193,54.978
	C870.432,162.164,862.547,143.571,861.672,112.852z M829.497,64.097c-4.698-30.401,0.478-50.907,3.344-55.936
	c5.178,1.835,16.566,21.943,21.662,51.548c5.177,29.603,1.354,50.429-3.184,55.776C844.391,111.894,834.197,94.499,829.497,64.097z
	 M856.495,149.557c-7.805,1.037-26.122-7.42-47.385-29.603c-21.263-22.183-28.828-41.972-29.308-47.717
	c5.258-1.436,26.122,8.458,47.306,29.763C848.293,123.305,857.052,142.535,856.495,149.557z M784.103,51.571
	c-17.68-25.057-22.219-45.723-21.899-51.548c5.414-0.638,24.608,12.289,42.365,36.546c17.761,24.177,23.494,44.605,21.902,51.387
	C818.587,87.797,801.783,76.704,784.103,51.571z M824.321,306.991c3.105,5.346-1.832,30.799-18.954,59.766
	c-17.122,28.965-35.519,43.886-43.243,45.163c-3.266-8.139,0.716-30.402,18.795-59.686
	C798.996,322.949,818.269,309.224,824.321,306.991z M662.177,448.147c-0.079-8.857,11.787-28.088,39.341-48.754
	c27.555-20.588,50.491-26.333,57.023-26.173c0.876,6.144-12.982,28.009-39.581,48.675
	C692.44,442.561,669.822,449.743,662.177,448.147z M224.236,421.895c-26.598-20.666-40.457-42.531-39.581-48.675
	c6.531-0.16,29.468,5.585,57.023,26.173c27.554,20.666,39.42,39.897,39.341,48.754C273.373,449.743,250.756,442.561,224.236,421.895
	z M137.828,366.757c-17.122-28.967-22.059-54.42-18.954-59.766c6.052,2.233,25.325,15.958,43.402,45.243
	c18.079,29.285,22.061,51.547,18.795,59.686C173.348,410.643,154.951,395.722,137.828,366.757z M116.724,87.956
	c-1.591-6.782,4.141-27.21,21.902-51.387c17.757-24.257,36.951-37.185,42.365-36.546c0.32,5.826-4.219,26.491-21.899,51.548
	C141.413,76.704,124.608,87.797,116.724,87.956z M163.393,72.237c-0.479,5.745-8.045,25.534-29.308,47.717
	c-21.263,22.183-39.58,30.64-47.385,29.603c-0.557-7.021,8.203-26.252,29.386-47.556C137.271,80.695,158.135,70.801,163.393,72.237z
	 M91.876,115.485c-4.538-5.346-8.362-26.173-3.184-55.776c5.096-29.604,16.484-49.712,21.662-51.548
	c2.866,5.028,8.042,25.535,3.344,55.936C108.998,94.499,98.805,111.894,91.876,115.485z M66.312,166.633
	c-5.096-4.788-11.547-24.896-10.193-54.978c1.433-30.004,10.193-51.388,15.131-53.862c3.425,4.628,11.071,24.338,10.273,55.058
	C80.648,143.571,72.763,162.164,66.312,166.633z M60.259,211.158c-6.609-2.155-20.864-17.794-32.094-45.643
	c-11.229-27.848-12.184-51.069-8.76-55.296c5.098,2.712,20.309,17.475,32.333,45.722C63.685,184.267,64.321,204.455,60.259,211.158z
	 M55.083,222.568c15.053,26.731,17.841,46.76,14.573,53.941c-6.768-1.437-22.696-15.48-36.872-41.892
	c-14.255-26.492-17.76-49.394-14.813-54.021C23.387,182.831,40.032,195.757,55.083,222.568z M50.384,273.956
	c24.211,18.911,34.483,36.307,34.246,44.126c-6.849,1.355-26.917-5.426-50.253-24.338c-23.254-18.911-35.279-38.7-34.324-44.126
	C5.788,249.539,26.174,255.046,50.384,273.956z M70.055,243.475c-3.186-6.224-2.468-27.369,8.919-55.217
	c11.388-27.77,26.838-45.004,32.333-45.643c1.674,5.505,2.231,26.652-8.84,55.297C91.318,226.558,77.701,241.4,70.055,243.475z
	 M105.415,335.716c-5.814-3.749-15.609-22.501-19.431-52.345c-3.823-29.843,1.194-52.424,5.575-55.696
	c4.221,3.989,15.131,22.024,19.59,52.504C115.609,310.581,111.071,330.211,105.415,335.716z M98.964,340.264
	c28.512,19.231,41.253,37.823,41.651,46.68c-7.565,1.996-30.502-4.07-58.056-23.46c-27.476-19.31-42.368-40.456-41.809-46.599
	C47.279,316.407,70.454,320.954,98.964,340.264z M108.123,384.152c33.927,5.505,53.359,16.996,57.34,24.815
	c-5.974,5.028-29.307,9.177-62.358,3.272c-33.129-5.985-55.588-18.911-57.579-24.736C51.181,384.311,74.118,378.725,108.123,384.152
	z M163.79,421.814c34.324-1.915,55.825,5.107,61.402,11.97c-4.859,6.143-26.76,15.241-60.286,16.517
	c-33.609,1.277-58.297-6.543-61.561-11.73C108.203,434.182,129.465,423.809,163.79,421.814z M215.954,447.429
	c34.006-5.506,56.066-0.718,62.277,5.505c-4.141,6.624-24.926,17.954-58.215,22.742c-33.29,4.708-58.694-0.478-62.438-5.426
	C161.959,465.462,182.028,452.934,215.954,447.429z M727.241,447.429c33.926,5.505,53.995,18.033,58.376,22.821
	c-3.745,4.948-29.148,10.135-62.438,5.426c-33.289-4.788-54.073-16.118-58.215-22.742
	C671.176,446.711,693.236,441.923,727.241,447.429z M778.289,450.301c-33.527-1.276-55.428-10.373-60.286-16.517
	c5.577-6.863,27.078-13.885,61.402-11.97c34.325,1.995,55.588,12.367,60.445,16.757
	C836.586,443.758,811.898,451.578,778.289,450.301z M777.732,408.967c3.981-7.819,23.414-19.31,57.34-24.815
	c34.005-5.427,56.942,0.159,62.596,3.351c-1.991,5.826-24.45,18.751-57.579,24.736C807.039,418.144,783.706,413.995,777.732,408.967
	z M902.446,316.886c0.558,6.143-14.334,27.289-41.81,46.599c-27.555,19.39-50.491,25.456-58.057,23.46
	c0.398-8.856,13.139-27.448,41.651-46.68C872.741,320.954,895.916,316.407,902.446,316.886z M831.887,142.615
	c5.495,0.638,20.945,17.873,32.333,45.643c11.388,27.848,12.105,48.993,8.919,55.217c-7.646-2.074-21.263-16.916-32.413-45.563
	C829.657,169.266,830.214,148.12,831.887,142.615z M837.78,335.716c-5.656-5.505-10.194-25.135-5.734-55.536
	c4.459-30.48,15.369-48.515,19.59-52.504c4.381,3.272,9.398,25.853,5.575,55.696C853.389,313.215,843.594,331.967,837.78,335.716z"
	/>
</svg>
