<svg xmlns="http://www.w3.org/2000/svg" xmlns:xlink="http://www.w3.org/1999/xlink" preserveAspectRatio="xMidYMid" width="859" height="251" viewBox="0 0 859 251">
  <defs>
    <style>

      .cls-3 {
        fill: #ffffff;
      }

      .cls-4 {
        fill: #2388db;
      }

      .cls-5 {
        fill: #83c7ff;
      }

      .cls-6 {
        fill: #2d3a42;
      }
    </style>
  </defs>
  <g id="logo">
    <path d="M783.030,126.036 C783.030,126.036 775.080,126.036 775.080,126.036 C775.080,105.664 791.511,111.661 791.511,95.345 C791.511,91.905 791.511,91.994 791.511,91.641 C791.335,82.028 788.419,78.853 781.617,78.853 C774.019,78.853 771.811,81.146 771.811,89.524 C771.811,89.524 763.683,89.524 763.683,89.524 C763.683,79.029 765.804,70.916 782.059,70.916 C793.631,70.916 799.904,77.354 799.904,91.376 C799.904,91.376 799.904,95.257 799.904,95.257 C799.904,115.805 783.030,110.161 783.030,126.036 ZM750.523,140.764 C750.523,140.764 733.031,117.834 733.031,117.834 C733.031,117.834 729.232,117.834 729.232,117.834 C729.232,117.834 729.232,140.764 729.232,140.764 C729.232,140.764 720.840,140.764 720.840,140.764 C720.840,140.764 720.840,72.679 720.840,72.679 C720.840,72.679 729.232,72.679 729.232,72.679 C729.232,72.679 729.232,109.897 729.232,109.897 C729.232,109.897 732.589,109.897 732.589,109.897 C732.589,109.897 748.579,89.172 748.579,89.172 C748.579,89.172 758.827,89.172 758.827,89.172 C758.827,89.172 739.921,113.425 739.921,113.425 C739.921,113.425 760.594,140.764 760.594,140.764 C760.594,140.764 750.523,140.764 750.523,140.764 ZM693.102,133.620 C700.257,133.620 703.880,132.121 704.056,123.302 C704.056,123.302 712.007,123.302 712.007,123.302 C711.830,136.884 706.530,141.646 693.102,141.646 C679.674,141.646 673.755,136.002 673.755,121.979 C673.755,121.979 673.755,107.339 673.755,107.339 C673.755,93.669 681.176,88.554 693.102,88.554 C704.586,88.554 711.477,92.611 712.007,105.840 C712.007,105.840 704.056,105.928 704.056,105.928 C703.703,97.814 699.816,96.315 693.102,96.315 C686.034,96.315 682.147,97.991 682.147,107.339 C682.147,107.339 682.147,121.979 682.147,121.979 C682.147,131.327 685.946,133.620 693.102,133.620 ZM597.987,184.680 C597.987,184.680 597.987,196.729 597.987,196.729 C597.987,196.729 587.794,196.729 587.794,196.729 C587.794,196.729 587.794,184.680 587.794,184.680 C548.889,182.064 518.142,149.737 518.142,110.235 C518.142,69.023 551.608,35.613 592.890,35.613 C634.173,35.613 667.639,69.023 667.639,110.235 C667.639,149.737 636.892,182.064 597.987,184.680 ZM664.241,110.236 C664.241,70.897 632.296,39.006 592.890,39.006 C553.485,39.006 521.540,70.897 521.540,110.236 C521.540,149.575 553.485,181.465 592.890,181.465 C632.296,181.465 664.241,149.575 664.241,110.236 ZM524.937,110.236 C524.937,72.770 555.361,42.398 592.890,42.398 C630.420,42.398 660.843,72.770 660.843,110.236 C660.843,147.701 630.420,178.074 592.890,178.074 C555.361,178.074 524.937,147.701 524.937,110.236 ZM472.758,127.233 C472.758,133.934 475.211,135.480 480.633,135.480 C486.055,135.480 488.507,133.676 488.507,129.810 C488.507,129.810 494.446,129.810 494.446,129.810 C494.446,137.091 490.444,141.151 480.633,141.151 C470.564,141.151 466.691,137.478 466.691,127.362 C466.691,127.362 466.691,116.342 466.691,116.342 C466.691,106.484 472.048,102.875 480.633,102.875 C489.088,102.875 494.575,106.549 494.575,116.342 C494.575,116.342 494.575,124.398 494.575,124.398 C494.575,124.398 472.758,124.398 472.758,124.398 C472.758,124.398 472.758,127.233 472.758,127.233 ZM488.701,119.049 C488.701,119.049 488.701,116.342 488.701,116.342 C488.701,109.706 485.474,108.288 480.633,108.288 C475.792,108.288 472.758,109.642 472.758,116.342 C472.758,116.342 472.758,119.049 472.758,119.049 C472.758,119.049 488.701,119.049 488.701,119.049 ZM453.583,117.310 C453.583,110.479 451.453,108.546 445.902,108.546 C440.803,108.546 438.221,110.994 438.157,117.051 C438.157,117.051 438.092,140.764 438.092,140.764 C438.092,140.764 431.960,140.764 431.960,140.764 C431.960,140.764 431.960,90.053 431.960,90.053 C431.960,90.053 438.157,90.053 438.157,90.053 C438.157,90.053 438.157,106.484 438.157,106.484 C439.512,104.486 442.481,102.618 446.741,102.618 C456.359,102.618 459.715,107.837 459.715,117.181 C459.715,117.181 459.715,140.764 459.715,140.764 C459.715,140.764 453.583,140.764 453.583,140.764 C453.583,140.764 453.583,117.310 453.583,117.310 ZM413.627,130.390 C413.627,130.390 413.627,96.496 413.627,96.496 C413.627,96.496 419.629,95.787 419.629,95.787 C419.629,95.787 419.629,103.262 419.629,103.262 C419.629,103.262 426.149,103.262 426.149,103.262 C426.149,103.262 426.149,109.062 426.149,109.062 C426.149,109.062 419.629,109.062 419.629,109.062 C419.629,109.062 419.629,130.197 419.629,130.197 C419.629,133.998 421.372,135.738 426.407,135.094 C426.407,135.094 426.407,140.764 426.407,140.764 C416.402,141.859 413.627,137.414 413.627,130.390 ZM367.094,126.565 C367.094,126.565 367.094,80.176 367.094,80.176 C367.094,80.176 375.310,79.206 375.310,79.206 C375.310,79.206 375.310,89.436 375.310,89.436 C375.310,89.436 384.232,89.436 384.232,89.436 C384.232,89.436 384.232,97.373 384.232,97.373 C384.232,97.373 375.310,97.373 375.310,97.373 C375.310,97.373 375.310,126.300 375.310,126.300 C375.310,131.504 377.695,133.885 384.586,133.003 C384.586,133.003 384.586,140.764 384.586,140.764 C370.893,142.264 367.094,136.178 367.094,126.565 ZM347.573,133.797 C345.718,137.589 340.683,141.205 334.410,141.205 C322.572,141.205 319.657,134.944 319.039,128.858 C318.155,119.774 324.339,113.248 334.940,111.749 C339.004,111.132 343.333,111.043 347.397,110.955 C347.397,110.955 347.397,105.928 347.397,105.928 C347.397,100.107 345.365,96.315 337.591,96.315 C332.732,96.315 329.375,97.991 329.463,104.958 C329.463,104.958 321.247,104.958 321.247,104.958 C320.894,93.493 326.901,88.642 337.856,88.642 C349.163,88.642 355.877,93.404 355.877,105.928 C355.877,105.928 355.877,140.764 355.877,140.764 C355.877,140.764 348.280,140.764 348.280,140.764 C348.280,140.764 347.573,133.797 347.573,133.797 ZM335.647,118.804 C329.905,120.039 326.901,122.773 327.520,127.800 C327.873,131.857 331.495,133.179 335.294,133.179 C344.570,133.179 347.308,126.389 347.573,117.922 C345.188,117.922 340.064,117.834 335.647,118.804 ZM301.903,108.662 C301.903,99.314 298.987,96.668 291.390,96.668 C284.411,96.668 280.877,100.020 280.789,108.309 C280.789,108.309 280.700,140.764 280.700,140.764 C280.700,140.764 272.308,140.764 272.308,140.764 C272.308,140.764 272.308,71.357 272.308,71.357 C272.308,71.357 280.789,71.357 280.789,71.357 C280.789,71.357 280.789,93.846 280.789,93.846 C282.644,91.112 286.708,88.554 292.538,88.554 C305.701,88.554 310.295,95.698 310.295,108.485 C310.295,108.485 310.295,140.764 310.295,140.764 C310.295,140.764 301.903,140.764 301.903,140.764 C301.903,140.764 301.903,108.662 301.903,108.662 ZM242.363,140.853 C242.363,140.853 236.621,118.011 236.621,118.011 C236.621,118.011 231.232,93.581 231.232,93.581 C231.232,93.581 225.843,118.011 225.843,118.011 C225.843,118.011 220.101,140.853 220.101,140.853 C220.101,140.853 212.415,140.853 212.415,140.853 C212.415,140.853 196.160,72.679 196.160,72.679 C196.160,72.679 204.818,72.679 204.818,72.679 C204.818,72.679 211.355,101.430 211.355,101.430 C211.355,101.430 216.302,126.830 216.302,126.830 C216.302,126.830 227.963,76.384 227.963,76.384 C227.963,76.384 234.501,76.384 234.501,76.384 C234.501,76.384 246.162,126.830 246.162,126.830 C246.162,126.830 251.109,101.430 251.109,101.430 C251.109,101.430 257.646,72.679 257.646,72.679 C257.646,72.679 266.304,72.679 266.304,72.679 C266.304,72.679 250.049,140.853 250.049,140.853 C250.049,140.853 242.363,140.853 242.363,140.853 ZM87.953,101.561 C88.235,101.776 88.532,101.977 88.836,102.170 C86.628,103.717 85.180,106.285 85.180,109.196 C85.180,109.196 89.439,126.325 89.439,126.325 C89.439,131.056 93.253,134.891 97.958,134.891 C97.958,134.891 132.030,134.891 132.030,134.891 C136.734,134.891 140.548,131.056 140.548,126.325 C140.548,126.325 140.548,109.196 140.548,109.196 C140.548,104.467 136.734,100.632 132.030,100.632 C132.030,100.632 119.367,100.632 119.367,100.632 C122.459,99.440 125.608,98.011 128.753,96.350 C128.753,96.350 134.159,96.350 134.159,96.350 C140.040,96.350 144.807,101.142 144.807,107.055 C144.807,107.055 144.807,128.466 144.807,128.466 C144.807,134.380 140.040,139.173 134.159,139.173 C134.159,139.173 95.828,139.173 95.828,139.173 C89.947,139.173 85.180,134.380 85.180,128.466 C85.180,128.466 82.199,113.479 82.199,113.479 C82.199,113.479 82.123,113.479 82.123,113.479 C81.612,110.314 78.890,107.896 75.599,107.896 C72.307,107.896 69.585,110.314 69.074,113.479 C69.074,113.479 68.996,113.479 68.996,113.479 C68.996,113.479 66.015,128.466 66.015,128.466 C66.015,134.380 61.248,139.173 55.367,139.173 C55.367,139.173 17.036,139.173 17.036,139.173 C11.155,139.173 6.388,134.380 6.388,128.466 C6.388,128.466 6.388,107.055 6.388,107.055 C6.388,101.142 11.155,96.350 17.036,96.350 C17.036,96.350 59.626,96.350 59.626,96.350 C64.952,96.350 69.352,100.286 70.137,105.420 C71.734,104.452 73.598,103.885 75.598,103.885 C77.598,103.885 79.462,104.452 81.059,105.420 C81.491,102.590 83.025,100.130 85.203,98.487 C85.882,99.644 86.795,100.676 87.953,101.561 ZM57.497,100.632 C57.497,100.632 19.165,100.632 19.165,100.632 C14.461,100.632 10.647,104.467 10.647,109.196 C10.647,109.196 10.647,126.325 10.647,126.325 C10.647,131.056 14.461,134.891 19.165,134.891 C19.165,134.891 53.238,134.891 53.238,134.891 C57.942,134.891 61.756,131.056 61.756,126.325 C61.756,126.325 66.015,109.196 66.015,109.196 C66.015,104.467 62.201,100.632 57.497,100.632 ZM597.987,245.911 C597.987,248.721 595.705,250.999 592.890,250.999 C590.076,250.999 587.794,248.721 587.794,245.911 C587.794,245.911 587.794,242.519 587.794,242.519 C587.794,242.519 597.987,242.519 597.987,242.519 C597.987,242.519 597.987,245.911 597.987,245.911 ZM784.709,136.443 C784.709,142.705 774.549,143.146 774.549,136.443 C774.549,130.005 784.709,129.740 784.709,136.443 Z" id="path-1" class="cls-3" fill-rule="evenodd"/>
    <path d="M632.821,140.764 C632.821,140.764 632.114,133.797 632.114,133.797 C630.259,137.589 625.223,141.205 618.951,141.205 C607.113,141.205 604.198,134.944 603.579,128.858 C602.696,119.774 608.880,113.248 619.481,111.749 C623.545,111.132 627.873,111.043 631.937,110.955 C631.937,110.955 631.937,105.928 631.937,105.928 C631.937,100.107 629.905,96.315 622.131,96.315 C617.272,96.315 613.915,97.991 614.004,104.958 C614.004,104.958 605.788,104.958 605.788,104.958 C605.435,93.493 611.442,88.642 622.396,88.642 C633.704,88.642 640.418,93.404 640.418,105.928 C640.418,105.928 640.418,140.764 640.418,140.764 C640.418,140.764 632.821,140.764 632.821,140.764 ZM620.188,118.804 C614.445,120.039 611.442,122.773 612.060,127.800 C612.414,131.857 616.036,133.179 619.834,133.179 C629.110,133.179 631.849,126.389 632.114,117.922 C629.729,117.922 624.605,117.834 620.188,118.804 ZM586.267,112.278 C586.267,112.278 563.474,112.278 563.474,112.278 C563.474,112.278 563.474,140.853 563.474,140.853 C563.474,140.853 554.905,140.853 554.905,140.853 C554.905,140.853 554.905,72.944 554.905,72.944 C554.905,72.944 563.474,72.944 563.474,72.944 C563.474,72.944 563.474,104.252 563.474,104.252 C563.474,104.252 586.267,104.252 586.267,104.252 C586.267,104.252 586.267,72.944 586.267,72.944 C586.267,72.944 594.659,72.944 594.659,72.944 C594.659,72.944 594.659,140.764 594.659,140.764 C594.659,140.764 586.267,140.764 586.267,140.764 C586.267,140.764 586.267,112.278 586.267,112.278 Z" id="path-2" class="cls-4" fill-rule="evenodd"/>
    <path d="M848.564,68.090 C841.589,68.090 838.259,64.895 838.259,57.740 C838.259,57.740 838.259,43.745 838.259,43.745 C838.259,36.771 841.589,33.396 848.564,33.396 C855.538,33.396 858.868,36.591 858.868,43.745 C858.868,43.745 858.868,57.740 858.868,57.740 C858.868,64.895 855.538,68.090 848.564,68.090 ZM852.659,44.061 C852.659,40.776 851.804,38.886 848.564,38.886 C845.324,38.886 844.469,40.776 844.469,44.061 C844.469,44.061 844.469,57.425 844.469,57.425 C844.469,60.710 845.324,62.600 848.564,62.600 C851.804,62.600 852.659,60.710 852.659,57.425 C852.659,57.425 852.659,44.061 852.659,44.061 ZM827.324,64.760 C827.324,60.170 834.299,60.215 834.299,64.760 C834.299,69.260 827.324,69.305 827.324,64.760 ZM809.415,60.755 C809.415,60.755 809.415,61.880 809.415,61.880 C809.415,61.880 822.689,61.880 822.689,61.880 C822.689,61.880 822.689,68.000 822.689,68.000 C822.689,68.000 803.205,68.000 803.205,68.000 C803.205,68.000 803.205,60.890 803.205,60.890 C803.205,46.176 816.974,51.125 816.974,42.351 C816.974,39.921 815.849,38.616 813.374,38.616 C810.765,38.616 809.595,39.426 809.595,43.476 C809.595,43.476 803.385,43.476 803.385,43.476 C803.385,36.546 806.265,33.126 813.419,33.126 C820.259,33.126 823.184,37.086 823.184,42.261 C823.184,57.065 809.415,50.180 809.415,60.755 Z" id="path-3" class="cls-5" fill-rule="evenodd"/>
    <path d="M603.667,219.559 C603.667,219.559 585.617,218.980 585.617,218.980 C583.125,218.899 579.300,216.877 579.300,214.536 C579.300,212.195 583.125,210.419 585.617,210.499 C585.617,210.499 603.667,209.383 603.667,209.383 C606.160,209.463 609.879,211.481 609.879,213.823 C609.879,213.823 609.879,215.518 609.879,215.518 C609.879,217.861 606.160,219.639 603.667,219.559 ZM598.836,206.905 C598.836,206.905 586.000,209.000 586.000,209.000 C585.994,209.006 585.991,209.011 585.985,209.018 C585.985,209.018 584.662,209.166 584.662,209.166 C581.876,209.166 577.601,211.696 577.601,214.818 C577.601,216.586 578.971,218.162 580.665,219.199 C578.309,220.044 575.902,222.066 575.902,224.430 C575.902,224.430 575.902,226.691 575.902,226.691 C575.902,229.359 578.970,231.590 581.570,232.183 C580.269,233.071 579.300,234.271 579.300,235.594 C579.300,235.594 579.300,237.572 579.300,237.572 C579.300,239.103 580.591,240.470 582.197,241.377 C577.626,241.320 572.654,240.824 570.806,240.824 C265.821,240.824 173.280,171.290 173.280,171.290 C309.161,241.678 530.711,224.019 553.763,212.020 C554.550,211.189 555.243,210.532 555.516,210.296 C568.472,199.853 572.413,198.424 580.270,198.424 C588.127,198.424 600.535,198.424 600.535,198.424 C602.881,198.424 604.782,199.475 604.782,201.816 C604.782,204.158 601.182,206.905 598.836,206.905 ZM117.123,59.950 C117.123,59.950 116.243,64.456 119.253,70.657 C101.133,56.949 95.828,40.680 95.828,40.680 C95.828,40.680 94.930,57.472 51.108,70.657 C59.323,66.055 57.497,57.809 57.497,57.809 C57.497,57.809 44.210,68.251 29.813,74.938 C33.465,70.482 34.072,64.232 34.072,64.232 C34.072,64.232 13.611,82.985 0.018,82.985 C0.054,82.730 -0.000,82.474 -0.000,82.216 C-0.000,36.808 33.846,-0.002 75.598,-0.002 C117.349,-0.002 151.195,36.808 151.195,82.216 C151.195,82.396 151.184,82.574 151.183,82.755 C136.833,82.755 117.123,59.950 117.123,59.950 ZM59.722,87.490 C63.407,90.551 65.475,94.400 66.015,98.491 C65.813,98.219 65.643,97.942 65.413,97.675 C57.725,88.731 37.136,85.646 19.425,90.785 C18.692,90.997 18.001,91.236 17.303,91.468 C17.303,91.468 17.036,91.168 17.036,91.168 C17.878,90.371 18.727,89.577 19.715,88.842 C31.856,79.826 49.768,79.221 59.722,87.490 ZM40.582,102.773 C40.510,103.120 40.461,103.475 40.461,103.844 C40.461,106.799 42.844,109.196 45.784,109.196 C47.805,109.196 49.541,108.051 50.443,106.384 C50.866,107.602 51.108,108.904 51.108,110.267 C51.108,116.771 45.864,122.043 39.396,122.043 C32.927,122.043 27.684,116.771 27.684,110.267 C27.684,107.420 28.689,104.809 30.361,102.773 C30.361,102.773 40.582,102.773 40.582,102.773 ZM66.015,138.978 C66.015,138.265 66.118,137.575 66.294,136.911 C67.312,140.664 71.086,143.454 75.598,143.454 C80.110,143.454 83.883,140.664 84.901,136.911 C85.077,137.575 85.180,138.265 85.180,138.978 C85.180,143.815 80.890,147.737 75.598,147.737 C70.305,147.737 66.015,143.815 66.015,138.978 ZM60.701,164.788 C61.078,164.788 61.434,164.867 61.770,164.987 C61.770,164.987 61.770,164.790 61.770,164.790 C81.085,164.816 98.135,161.458 108.605,156.302 C102.297,165.003 83.729,171.289 61.779,171.260 C61.779,171.260 61.779,171.061 61.779,171.061 C61.443,171.181 61.087,171.259 60.710,171.259 C58.939,171.256 57.502,169.805 57.499,168.018 C57.497,166.232 58.930,164.786 60.701,164.788 ZM100.087,110.267 C100.087,107.648 100.948,105.237 102.386,103.281 C97.698,103.679 93.717,102.891 91.069,100.692 C88.231,98.337 87.310,94.723 88.043,90.463 C88.165,90.704 88.254,90.958 88.407,91.187 C93.521,98.851 113.800,96.940 133.702,86.919 C134.525,86.505 135.314,86.073 136.108,85.644 C136.108,85.644 136.289,85.901 136.289,85.901 C135.168,86.971 134.041,88.040 132.790,89.080 C127.492,93.482 121.807,96.959 116.310,99.399 C116.533,99.492 116.737,99.619 116.953,99.727 C115.766,100.708 114.994,102.178 114.994,103.844 C114.994,106.799 117.377,109.196 120.317,109.196 C121.435,109.196 122.470,108.847 123.327,108.255 C123.439,108.910 123.512,109.579 123.512,110.267 C123.512,116.771 118.268,122.043 111.799,122.043 C105.331,122.043 100.087,116.771 100.087,110.267 ZM580.999,235.877 C580.999,233.925 584.599,232.343 586.944,232.343 C586.944,232.343 600.535,232.343 600.535,232.343 C602.881,232.343 604.782,233.925 604.782,235.877 C604.782,237.828 602.881,239.410 600.535,239.410 C600.535,239.410 586.944,240.824 586.944,240.824 C584.599,240.824 580.999,239.242 580.999,237.290 C580.999,237.290 580.999,235.877 580.999,235.877 ZM586.095,230.647 C586.095,230.647 583.929,230.647 583.929,230.647 C581.466,230.647 577.686,228.749 577.686,226.408 C577.686,226.408 577.686,224.712 577.686,224.712 C577.686,222.370 581.466,220.472 583.929,220.472 C583.929,220.472 584.662,220.472 584.662,220.472 C584.662,220.472 604.835,220.472 604.835,220.472 C604.835,220.472 605.334,220.472 605.334,220.472 C607.797,220.472 609.794,222.370 609.794,224.712 C609.794,227.053 607.797,230.647 605.334,230.647 C605.334,230.647 601.627,230.647 601.627,230.647 C601.627,230.647 586.095,230.647 586.095,230.647 Z" id="path-4" class="cls-6" fill-rule="evenodd"/>
  </g>
</svg>
